<svg width="431" height="239" viewBox="0 0 431 239" fill="none" xmlns="http://www.w3.org/2000/svg">
<ellipse cx="215.5" cy="166.332" rx="72.352" ry="72.3807" fill="white"/>
<path d="M71.574 166.332C71.574 206.307 103.619 238.713 143.148 238.713V93.9512C103.619 93.9512 71.574 126.357 71.574 166.332Z" fill="white"/>
<path d="M0 166.332C0 206.307 32.0448 238.713 71.574 238.713V93.9512C32.0448 93.9512 0 126.357 0 166.332Z" fill="white"/>
<path d="M359.426 166.332C359.426 126.357 327.381 93.9512 287.852 93.9512L287.852 238.713C327.381 238.713 359.426 206.307 359.426 166.332Z" fill="white"/>
<path d="M431 166.332C431 126.357 398.955 93.9512 359.426 93.9512L359.426 238.713C398.955 238.713 431 206.307 431 166.332Z" fill="white"/>
<path d="M37.6836 65.872C36.2777 66.9147 34.5356 67.712 32.4574 68.264C30.4403 68.7547 28.3009 69 26.0393 69C20.1713 69 15.6174 67.4973 12.3778 64.492C9.19931 61.4867 7.61006 57.0707 7.61006 51.244V30.912H0V19.872H7.61006V7.82H21.9133V19.872H34.1994V30.912H21.9133V51.06C21.9133 53.1453 22.4329 54.7707 23.472 55.936C24.5723 57.04 26.1004 57.592 28.0564 57.592C30.318 57.592 32.2434 56.9787 33.8327 55.752L37.6836 65.872Z" fill="white"/>
<path d="M62.5832 25.3C64.2947 22.908 66.5869 21.0987 69.4597 19.872C72.3937 18.6453 75.7556 18.032 79.5454 18.032V31.28C77.9561 31.1573 76.8864 31.096 76.3363 31.096C72.2409 31.096 69.0319 32.2613 66.7091 34.592C64.3864 36.8613 63.225 40.296 63.225 44.896V68.264H48.9217V18.768H62.5832V25.3Z" fill="white"/>
<path d="M141.312 18.768V68.264H127.742V62.376C125.847 64.5227 123.586 66.1787 120.957 67.344C118.329 68.448 115.487 69 112.43 69C105.951 69 100.817 67.1293 97.0269 63.388C93.2371 59.6467 91.3422 54.096 91.3422 46.736V18.768H105.646V44.62C105.646 52.5933 108.977 56.58 115.639 56.58C119.062 56.58 121.813 55.476 123.891 53.268C125.97 50.9987 127.009 47.656 127.009 43.24V18.768H141.312Z" fill="white"/>
<path d="M206.091 43.7C206.091 43.884 206 45.172 205.816 47.564H168.499C169.172 50.6307 170.761 53.0533 173.267 54.832C175.773 56.6107 178.891 57.5 182.619 57.5C185.187 57.5 187.448 57.132 189.404 56.396C191.421 55.5987 193.286 54.372 194.997 52.716L202.607 60.996C197.962 66.332 191.177 69 182.253 69C176.69 69 171.77 67.9267 167.491 65.78C163.212 63.572 159.911 60.536 157.589 56.672C155.266 52.808 154.104 48.4227 154.104 43.516C154.104 38.6707 155.235 34.316 157.497 30.452C159.82 26.5267 162.968 23.4907 166.941 21.344C170.975 19.136 175.468 18.032 180.419 18.032C185.248 18.032 189.618 19.0747 193.53 21.16C197.442 23.2453 200.498 26.2507 202.699 30.176C204.96 34.04 206.091 38.548 206.091 43.7ZM180.51 28.888C177.271 28.888 174.551 29.808 172.35 31.648C170.15 33.488 168.805 36.0027 168.316 39.192H192.613C192.124 36.064 190.779 33.58 188.579 31.74C186.378 29.8387 183.689 28.888 180.51 28.888Z" fill="white"/>
<path d="M242.662 69C237.405 69 232.668 67.9267 228.45 65.78C224.294 63.572 221.023 60.536 218.64 56.672C216.317 52.808 215.155 48.4227 215.155 43.516C215.155 38.6093 216.317 34.224 218.64 30.36C221.023 26.496 224.294 23.4907 228.45 21.344C232.668 19.136 237.405 18.032 242.662 18.032C247.857 18.032 252.381 19.136 256.231 21.344C260.143 23.4907 262.986 26.588 264.758 30.636L253.664 36.616C251.097 32.0773 247.399 29.808 242.57 29.808C238.841 29.808 235.755 31.0347 233.31 33.488C230.865 35.9413 229.642 39.284 229.642 43.516C229.642 47.748 230.865 51.0907 233.31 53.544C235.755 55.9973 238.841 57.224 242.57 57.224C247.46 57.224 251.158 54.9547 253.664 50.416L264.758 56.488C262.986 60.4133 260.143 63.48 256.231 65.688C252.381 67.896 247.857 69 242.662 69Z" fill="white"/>
<path d="M299.048 69C293.853 69 289.176 67.9267 285.02 65.78C280.925 63.572 277.715 60.536 275.393 56.672C273.07 52.808 271.909 48.4227 271.909 43.516C271.909 38.6093 273.07 34.224 275.393 30.36C277.715 26.496 280.925 23.4907 285.02 21.344C289.176 19.136 293.853 18.032 299.048 18.032C304.244 18.032 308.889 19.136 312.985 21.344C317.08 23.4907 320.289 26.496 322.612 30.36C324.935 34.224 326.096 38.6093 326.096 43.516C326.096 48.4227 324.935 52.808 322.612 56.672C320.289 60.536 317.08 63.572 312.985 65.78C308.889 67.9267 304.244 69 299.048 69ZM299.048 57.224C302.716 57.224 305.711 55.9973 308.033 53.544C310.417 51.0293 311.609 47.6867 311.609 43.516C311.609 39.3453 310.417 36.0333 308.033 33.58C305.711 31.0653 302.716 29.808 299.048 29.808C295.381 29.808 292.355 31.0653 289.971 33.58C287.587 36.0333 286.395 39.3453 286.395 43.516C286.395 47.6867 287.587 51.0293 289.971 53.544C292.355 55.9973 295.381 57.224 299.048 57.224Z" fill="white"/>
<path d="M352.527 25.3C354.238 22.908 356.531 21.0987 359.404 19.872C362.338 18.6453 365.699 18.032 369.489 18.032V31.28C367.9 31.1573 366.83 31.096 366.28 31.096C362.185 31.096 358.976 32.2613 356.653 34.592C354.33 36.8613 353.169 40.296 353.169 44.896V68.264H338.866V18.768H352.527V25.3Z" fill="white"/>
<path d="M431 0V68.264H417.339V62.56C413.793 66.8533 408.659 69 401.935 69C397.29 69 393.072 67.9573 389.282 65.872C385.554 63.7867 382.62 60.812 380.48 56.948C378.341 53.084 377.271 48.6067 377.271 43.516C377.271 38.4253 378.341 33.948 380.48 30.084C382.62 26.22 385.554 23.2453 389.282 21.16C393.072 19.0747 397.29 18.032 401.935 18.032C408.231 18.032 413.152 20.0253 416.697 24.012V0H431ZM404.411 57.224C408.017 57.224 411.012 55.9973 413.396 53.544C415.78 51.0293 416.972 47.6867 416.972 43.516C416.972 39.3453 415.78 36.0333 413.396 33.58C411.012 31.0653 408.017 29.808 404.411 29.808C400.743 29.808 397.717 31.0653 395.334 33.58C392.95 36.0333 391.758 39.3453 391.758 43.516C391.758 47.6867 392.95 51.0293 395.334 53.544C397.717 55.9973 400.743 57.224 404.411 57.224Z" fill="white"/>
</svg>
